<svg xmlns="http://www.w3.org/2000/svg" width="1200" height="630" viewBox="0 0 1200 630">
  <defs>
    <style>
      .bg{fill:#030712}.grid{stroke:#22d3ee;stroke-width:1;opacity:.42}.pill{fill:#22d3ee}.title{font-family:Inter,Segoe UI,Arial,sans-serif;font-size:66px;font-weight:900;fill:#e5f7ff;letter-spacing:-3px}.sub{font-family:Inter,Segoe UI,Arial,sans-serif;font-size:37px;fill:#9ecbff}.tag{font-family:Inter,Segoe UI,Arial,sans-serif;font-size:24px;font-weight:800;fill:#ffe8cf}.brand{font-family:Inter,Segoe UI,Arial,sans-serif;font-size:25px;font-weight:900;fill:#e5f7ff}.cyan{fill:#33e6ff}.cyanS{stroke:#33e6ff}.orange{fill:#ff8a2b}.ink{fill:#09111d}.dark{fill:#142236}.cream{fill:#f1f7e8}.line{fill:none;stroke-linecap:round;stroke-linejoin:round}.thick{stroke-width:10}.mid{stroke-width:7}
    </style>
    <linearGradient id="wash" x1="0" x2="1"><stop offset="0" stop-color="#134e5e" stop-opacity=".65"/><stop offset=".62" stop-color="#020617"/><stop offset="1" stop-color="#4a123a" stop-opacity=".9"/></linearGradient>
  </defs>
  <rect class="bg" width="1200" height="630"/>
  <rect width="1200" height="630" fill="url(#wash)"/>
  <g opacity=".85">
    <path class="grid" d="M0 60H1200 M0 120H1200 M0 180H1200 M0 240H1200 M0 300H1200 M0 360H1200 M0 420H1200 M0 480H1200 M0 540H1200 M0 600H1200"/>
    <path class="grid" d="M60 0V630 M120 0V630 M180 0V630 M240 0V630 M300 0V630 M360 0V630 M420 0V630 M480 0V630 M540 0V630 M600 0V630 M660 0V630 M720 0V630 M780 0V630 M840 0V630 M900 0V630 M960 0V630 M1020 0V630 M1080 0V630 M1140 0V630"/>
  </g>
  <rect x="70" y="64" rx="24" width="262" height="50" class="pill"/>
  <text x="94" y="97" class="brand">askhermie.dev</text>
  <text x="74" y="214" class="title">Useful AI and</text>
  <text x="74" y="286" class="title">tech tools in</text>
  <text x="74" y="358" class="title">plain English</text>
  <text x="74" y="415" class="sub">AI agents • cyber labs • IoT •</text>
  <text x="74" y="456" class="sub">firmware • systems engineering</text>
  <g transform="translate(70 535)">
    <rect rx="20" width="194" height="42" fill="#251a18" stroke="#ff8a2b" stroke-width="2"/><text class="tag" x="18" y="30">Find the tool</text>
    <g transform="translate(212 0)"><rect rx="20" width="274" height="42" fill="#251a18" stroke="#ff8a2b" stroke-width="2"/><text class="tag" x="18" y="30">Understand the use</text></g>
    <g transform="translate(506 0)"><rect rx="20" width="264" height="42" fill="#251a18" stroke="#ff8a2b" stroke-width="2"/><text class="tag" x="18" y="30">Copy the first step</text></g>
  </g>

  <g transform="translate(955 292) scale(0.96)">
    <rect x="-175" y="-205" width="350" height="410" rx="52" fill="#070b14" stroke="#22d3ee" stroke-width="4" opacity=".9"/>
    <circle r="145" fill="#050b15" stroke="#123047" stroke-width="7"/>
    <circle r="128" fill="none" stroke="#22d3ee" stroke-width="4" opacity=".9"/>
    <path d="M-92 -70 L-145 -160 L-122 -26 Z" fill="#101827" stroke="#22d3ee" stroke-width="8" stroke-linejoin="round"/>
    <path d="M92 -70 L145 -160 L122 -26 Z" fill="#101827" stroke="#22d3ee" stroke-width="8" stroke-linejoin="round"/>
    <path d="M-119 -118 L-138 -155 L-122 -63 Z" class="orange"/><path d="M119 -118 L138 -155 L122 -63 Z" class="orange"/>
    <path d="M-105 -60 C-72 -136 -20 -157 0 -157 C20 -157 72 -136 105 -60 L84 93 C48 146 18 159 0 159 C-18 159 -48 146 -84 93 Z" class="cream" stroke="#22d3ee" stroke-width="9" stroke-linejoin="round"/>
    <path d="M-55 -125 C-24 -153 -6 -158 0 -158 C6 -158 24 -153 55 -125 C32 -58 14 28 0 118 C-14 28 -32 -58 -55 -125 Z" fill="#0b1220"/>
    <circle cx="-45" cy="5" r="18" fill="#07111f"/><circle cx="45" cy="5" r="18" fill="#07111f"/>
    <circle cx="-39" cy="0" r="7" class="cyan"/><circle cx="51" cy="0" r="7" class="cyan"/>
    <path d="M0 37 L-20 64 H20 Z" class="orange"/>
    <path d="M-28 92 C-7 111 7 111 28 92" class="line" stroke="#111827" stroke-width="10"/>
    <path d="M84 85 l40 40" class="line orange thick"/><circle cx="136" cy="137" r="14" fill="none" stroke="#ff8a2b" stroke-width="9"/>
  </g>
</svg>
