<svg xmlns="http://www.w3.org/2000/svg" width="512" height="512" viewBox="0 0 512 512" role="img" aria-label="Byte Badger favicon">
  <rect width="512" height="512" rx="112" fill="#07111f"/>
  <path d="M116 168 L54 62 L86 244 Z" fill="#101827" stroke="#22d3ee" stroke-width="18" stroke-linejoin="round"/>
  <path d="M396 168 L458 62 L426 244 Z" fill="#101827" stroke="#22d3ee" stroke-width="18" stroke-linejoin="round"/>
  <path d="M76 92 L60 66 L82 170 Z" fill="#f97316"/>
  <path d="M436 92 L452 66 L430 170 Z" fill="#f97316"/>
  <path d="M96 174 C140 70 220 42 256 42 C292 42 372 70 416 174 L384 366 C340 434 294 456 256 456 C218 456 172 434 128 366 Z" fill="#eef8ed" stroke="#22d3ee" stroke-width="20" stroke-linejoin="round"/>
  <path d="M186 76 C222 48 246 42 256 42 C266 42 290 48 326 76 C298 154 274 260 256 406 C238 260 214 154 186 76 Z" fill="#0b1220"/>
  <circle cx="192" cy="242" r="31" fill="#07111f"/>
  <circle cx="320" cy="242" r="31" fill="#07111f"/>
  <circle cx="202" cy="232" r="11" fill="#67e8f9"/>
  <circle cx="330" cy="232" r="11" fill="#67e8f9"/>
  <path d="M256 288 L222 334 H290 Z" fill="#f97316" stroke="#111827" stroke-width="6" stroke-linejoin="round"/>
  <path d="M218 374 C242 397 270 397 294 374" fill="none" stroke="#111827" stroke-width="18" stroke-linecap="round"/>
</svg>
